<svg xmlns="http://www.w3.org/2000/svg" xmlns:xlink="http://www.w3.org/1999/xlink" version="1.1" x="0px" y="0px" viewBox="0 0 96 120" enable-background="new 0 0 96 96" xml:space="preserve"><path d="M73.46,20.368L50.708,1.244c-0.08-0.08-0.168-0.136-0.252-0.204L50.34,0.936c-0.064-0.052-0.136-0.068-0.199-0.112  c-0.301-0.22-0.604-0.42-0.961-0.552c-0.296-0.112-0.607-0.148-0.92-0.188C48.116,0.072,47.984,0,47.832,0  c-0.012,0-0.024,0.004-0.036,0.004C46.86,0,45.924,0.32,45.168,0.96L22.504,20.396c-1.676,1.436-1.872,3.96-0.432,5.64  c1.436,1.676,3.964,1.872,5.64,0.432l16.12-13.824v79.352c0,2.208,1.792,4,4,4s4-1.792,4-4v-79.36L68.32,26.488  c0.752,0.632,1.664,0.94,2.572,0.94c1.14,0,2.271-0.484,3.067-1.428C75.376,24.316,75.156,21.788,73.46,20.368L73.46,20.368z"/><text x="0" y="111" fill="#000000" font-size="5px" font-weight="bold" font-family="'Helvetica Neue', Helvetica, Arial-Unicode, Arial, Sans-serif">Created by iconsmind.com</text><text x="0" y="116" fill="#000000" font-size="5px" font-weight="bold" font-family="'Helvetica Neue', Helvetica, Arial-Unicode, Arial, Sans-serif">from the Noun Project</text></svg>