<?xml version="1.0" encoding="utf-8"?>
<!-- Generator: Adobe Illustrator 16.0.4, SVG Export Plug-In . SVG Version: 6.00 Build 0)  -->
<!DOCTYPE svg PUBLIC "-//W3C//DTD SVG 1.1//EN" "http://www.w3.org/Graphics/SVG/1.1/DTD/svg11.dtd">
<svg version="1.1" id="Layer_1" xmlns="http://www.w3.org/2000/svg" xmlns:xlink="http://www.w3.org/1999/xlink" x="0px" y="0px"
	 width="1028px" height="1608px" viewBox="-127.5 -27.25 1028 1608" enable-background="new -127.5 -27.25 1028 1608"
	 xml:space="preserve">
<g>
	<g>
		<path fill="#FFFFFF" d="M-15.66,75.298c0,19.563-14.561,35.422-32.52,35.422c-17.963,0-32.523-15.859-32.523-35.422
			S-50.504,7.353-50.504,7.353S-15.66,55.734-15.66,75.298z"/>
		<path fill="#FFFFFF" d="M-15.66,211.528c0,19.564-14.561,35.423-32.52,35.423c-17.963,0-32.523-15.859-32.523-35.423
			c0-19.566,30.199-67.942,30.199-67.942S-15.66,191.962-15.66,211.528z"/>
		<path fill="#FFFFFF" d="M-15.66,346.438c0,19.563-14.561,35.419-32.52,35.419c-17.963,0-32.523-15.856-32.523-35.419
			c0-19.566,30.199-67.948,30.199-67.948S-15.66,326.872-15.66,346.438z"/>
		<path fill="#FFFFFF" d="M-15.66,482.006c0,19.563-14.561,35.422-32.52,35.422c-17.963,0-32.523-15.858-32.523-35.422
			s30.199-67.945,30.199-67.945S-15.66,462.442-15.66,482.006z"/>
		<path fill="#FFFFFF" d="M-16.134,617.573c0,19.569-14.561,35.425-32.517,35.425c-17.965,0-32.523-15.855-32.523-35.425
			c0-19.563,30.199-67.942,30.199-67.942S-16.134,598.01-16.134,617.573z"/>
	</g>
	<g>
		<path fill="#FFFFFF" d="M81.656,75.298c0,19.563-14.561,35.422-32.518,35.422c-17.965,0-32.522-15.859-32.522-35.422
			S46.814,7.353,46.814,7.353S81.656,55.734,81.656,75.298z"/>
		<path fill="#FFFFFF" d="M81.656,211.528c0,19.564-14.561,35.423-32.518,35.423c-17.965,0-32.522-15.859-32.522-35.423
			c0-19.566,30.198-67.942,30.198-67.942S81.656,191.962,81.656,211.528z"/>
		<path fill="#FFFFFF" d="M81.656,346.438c0,19.563-14.561,35.419-32.518,35.419c-17.965,0-32.522-15.856-32.522-35.419
			c0-19.566,30.198-67.948,30.198-67.948S81.656,326.872,81.656,346.438z"/>
		<path fill="#FFFFFF" d="M81.656,482.006c0,19.563-14.561,35.422-32.518,35.422c-17.965,0-32.522-15.858-32.522-35.422
			s30.198-67.945,30.198-67.945S81.656,462.442,81.656,482.006z"/>
		<path fill="#FFFFFF" d="M81.186,617.573c0,19.569-14.561,35.425-32.52,35.425c-17.963,0-32.521-15.855-32.521-35.425
			c0-19.563,30.198-67.942,30.198-67.942S81.186,598.01,81.186,617.573z"/>
	</g>
	<g>
		<path fill="#FFFFFF" d="M-15.66,756.531c0,19.562-14.561,35.425-32.52,35.425c-17.963,0-32.523-15.862-32.523-35.425
			c0-19.564,30.199-67.943,30.199-67.943S-15.66,736.967-15.66,756.531z"/>
		<path fill="#FFFFFF" d="M-15.66,892.762c0,19.563-14.561,35.422-32.52,35.422c-17.963,0-32.523-15.858-32.523-35.422
			s30.199-67.942,30.199-67.942S-15.66,873.198-15.66,892.762z"/>
		<path fill="#FFFFFF" d="M-15.66,1027.671c0,19.562-14.561,35.423-32.52,35.423c-17.963,0-32.523-15.861-32.523-35.423
			c0-19.566,30.199-67.948,30.199-67.948S-15.66,1008.104-15.66,1027.671z"/>
		<path fill="#FFFFFF" d="M-15.66,1163.238c0,19.564-14.561,35.423-32.52,35.423c-17.963,0-32.523-15.858-32.523-35.423
			c0-19.563,30.199-67.945,30.199-67.945S-15.66,1143.675-15.66,1163.238z"/>
		<path fill="#FFFFFF" d="M-16.134,1298.809c0,19.563-14.561,35.423-32.517,35.423c-17.965,0-32.523-15.859-32.523-35.423
			c0-19.566,30.199-67.945,30.199-67.945S-16.134,1279.242-16.134,1298.809z"/>
	</g>
	<g>
		<path fill="#FFFFFF" d="M81.656,756.531c0,19.562-14.561,35.425-32.518,35.425c-17.965,0-32.522-15.862-32.522-35.425
			c0-19.564,30.198-67.943,30.198-67.943S81.656,736.967,81.656,756.531z"/>
		<path fill="#FFFFFF" d="M81.656,892.762c0,19.563-14.561,35.422-32.518,35.422c-17.965,0-32.522-15.858-32.522-35.422
			s30.198-67.942,30.198-67.942S81.656,873.198,81.656,892.762z"/>
		<path fill="#FFFFFF" d="M81.656,1027.671c0,19.562-14.561,35.423-32.518,35.423c-17.965,0-32.522-15.861-32.522-35.423
			c0-19.566,30.198-67.948,30.198-67.948S81.656,1008.104,81.656,1027.671z"/>
		<path fill="#FFFFFF" d="M81.656,1163.238c0,19.564-14.561,35.423-32.518,35.423c-17.965,0-32.522-15.858-32.522-35.423
			c0-19.563,30.198-67.945,30.198-67.945S81.656,1143.675,81.656,1163.238z"/>
		<path fill="#FFFFFF" d="M81.186,1298.809c0,19.563-14.561,35.423-32.52,35.423c-17.963,0-32.521-15.859-32.521-35.423
			c0-19.566,30.198-67.945,30.198-67.945S81.186,1279.242,81.186,1298.809z"/>
	</g>
	<g>
		<path fill="#FFFFFF" d="M179.57,75.298c0,19.563-14.561,35.422-32.52,35.422c-17.963,0-32.521-15.859-32.521-35.422
			s30.198-67.945,30.198-67.945S179.57,55.734,179.57,75.298z"/>
		<path fill="#FFFFFF" d="M179.57,211.528c0,19.564-14.561,35.423-32.52,35.423c-17.963,0-32.521-15.859-32.521-35.423
			c0-19.566,30.198-67.942,30.198-67.942S179.57,191.962,179.57,211.528z"/>
		<path fill="#FFFFFF" d="M179.57,346.438c0,19.563-14.561,35.419-32.52,35.419c-17.963,0-32.521-15.856-32.521-35.419
			c0-19.566,30.198-67.948,30.198-67.948S179.57,326.872,179.57,346.438z"/>
		<path fill="#FFFFFF" d="M179.57,482.006c0,19.563-14.561,35.422-32.52,35.422c-17.963,0-32.521-15.858-32.521-35.422
			s30.198-67.945,30.198-67.945S179.57,462.442,179.57,482.006z"/>
		<path fill="#FFFFFF" d="M179.1,617.573c0,19.569-14.563,35.425-32.52,35.425c-17.963,0-32.521-15.855-32.521-35.425
			c0-19.563,30.196-67.942,30.196-67.942S179.1,598.01,179.1,617.573z"/>
	</g>
	<g>
		<path fill="#FFFFFF" d="M276.889,75.298c0,19.563-14.562,35.422-32.52,35.422c-17.962,0-32.52-15.859-32.52-35.422
			s30.195-67.945,30.195-67.945S276.889,55.734,276.889,75.298z"/>
		<path fill="#FFFFFF" d="M276.889,211.528c0,19.564-14.562,35.423-32.52,35.423c-17.962,0-32.52-15.859-32.52-35.423
			c0-19.566,30.195-67.942,30.195-67.942S276.889,191.962,276.889,211.528z"/>
		<path fill="#FFFFFF" d="M276.889,346.438c0,19.563-14.562,35.419-32.52,35.419c-17.962,0-32.52-15.856-32.52-35.419
			c0-19.566,30.195-67.948,30.195-67.948S276.889,326.872,276.889,346.438z"/>
		<path fill="#FFFFFF" d="M276.889,482.006c0,19.563-14.562,35.422-32.52,35.422c-17.962,0-32.52-15.858-32.52-35.422
			s30.195-67.945,30.195-67.945S276.889,462.442,276.889,482.006z"/>
		<path fill="#FFFFFF" d="M276.416,617.573c0,19.569-14.561,35.425-32.52,35.425c-17.96,0-32.518-15.855-32.518-35.425
			c0-19.563,30.195-67.942,30.195-67.942S276.416,598.01,276.416,617.573z"/>
	</g>
	<g>
		<path fill="#FFFFFF" d="M179.57,756.531c0,19.562-14.561,35.425-32.52,35.425c-17.963,0-32.521-15.862-32.521-35.425
			c0-19.564,30.198-67.943,30.198-67.943S179.57,736.967,179.57,756.531z"/>
		<path fill="#FFFFFF" d="M179.57,892.762c0,19.563-14.561,35.422-32.52,35.422c-17.963,0-32.521-15.858-32.521-35.422
			s30.198-67.942,30.198-67.942S179.57,873.198,179.57,892.762z"/>
		<path fill="#FFFFFF" d="M179.57,1027.671c0,19.562-14.561,35.423-32.52,35.423c-17.963,0-32.521-15.861-32.521-35.423
			c0-19.566,30.198-67.948,30.198-67.948S179.57,1008.104,179.57,1027.671z"/>
		<path fill="#FFFFFF" d="M179.57,1163.238c0,19.564-14.561,35.423-32.52,35.423c-17.963,0-32.521-15.858-32.521-35.423
			c0-19.563,30.198-67.945,30.198-67.945S179.57,1143.675,179.57,1163.238z"/>
		<path fill="#FFFFFF" d="M179.1,1298.809c0,19.563-14.563,35.423-32.52,35.423c-17.963,0-32.521-15.859-32.521-35.423
			c0-19.566,30.196-67.945,30.196-67.945S179.1,1279.242,179.1,1298.809z"/>
	</g>
	<g>
		<path fill="#FFFFFF" d="M276.889,756.531c0,19.562-14.562,35.425-32.52,35.425c-17.962,0-32.52-15.862-32.52-35.425
			c0-19.564,30.195-67.943,30.195-67.943S276.889,736.967,276.889,756.531z"/>
		<path fill="#FFFFFF" d="M276.889,892.762c0,19.563-14.562,35.422-32.52,35.422c-17.962,0-32.52-15.858-32.52-35.422
			s30.195-67.942,30.195-67.942S276.889,873.198,276.889,892.762z"/>
		<path fill="#FFFFFF" d="M276.889,1027.671c0,19.562-14.562,35.423-32.52,35.423c-17.962,0-32.52-15.861-32.52-35.423
			c0-19.566,30.195-67.948,30.195-67.948S276.889,1008.104,276.889,1027.671z"/>
		<path fill="#FFFFFF" d="M276.889,1163.238c0,19.564-14.562,35.423-32.52,35.423c-17.962,0-32.52-15.858-32.52-35.423
			c0-19.563,30.195-67.945,30.195-67.945S276.889,1143.675,276.889,1163.238z"/>
		<path fill="#FFFFFF" d="M276.416,1298.809c0,19.563-14.561,35.423-32.52,35.423c-17.96,0-32.518-15.859-32.518-35.423
			c0-19.566,30.195-67.945,30.195-67.945S276.416,1279.242,276.416,1298.809z"/>
	</g>
	<g>
		<path fill="#FFFFFF" d="M376.879,77.373c0,19.566-14.562,35.425-32.521,35.425c-17.962,0-32.521-15.859-32.521-35.425
			c0-19.563,30.199-67.942,30.199-67.942S376.879,57.809,376.879,77.373z"/>
		<path fill="#FFFFFF" d="M376.879,213.606c0,19.561-14.562,35.422-32.521,35.422c-17.962,0-32.521-15.862-32.521-35.422
			c0-19.566,30.199-67.945,30.199-67.945S376.879,194.04,376.879,213.606z"/>
		<path fill="#FFFFFF" d="M376.879,348.513c0,19.563-14.562,35.425-32.521,35.425c-17.962,0-32.521-15.862-32.521-35.425
			s30.199-67.942,30.199-67.942S376.879,328.95,376.879,348.513z"/>
		<path fill="#FFFFFF" d="M376.879,484.084c0,19.561-14.562,35.422-32.521,35.422c-17.962,0-32.521-15.861-32.521-35.422
			c0-19.564,30.199-67.946,30.199-67.946S376.879,464.52,376.879,484.084z"/>
		<path fill="#FFFFFF" d="M376.408,619.654c0,19.562-14.564,35.419-32.521,35.419c-17.962,0-32.52-15.856-32.52-35.419
			c0-19.566,30.195-67.949,30.195-67.949S376.408,600.088,376.408,619.654z"/>
	</g>
	<g>
		<path fill="#FFFFFF" d="M474.197,77.373c0,19.566-14.561,35.425-32.52,35.425c-17.963,0-32.521-15.859-32.521-35.425
			c0-19.563,30.196-67.942,30.196-67.942S474.197,57.809,474.197,77.373z"/>
		<path fill="#FFFFFF" d="M474.197,213.606c0,19.561-14.561,35.422-32.52,35.422c-17.963,0-32.521-15.862-32.521-35.422
			c0-19.566,30.196-67.945,30.196-67.945S474.197,194.04,474.197,213.606z"/>
		<path fill="#FFFFFF" d="M474.197,348.513c0,19.563-14.561,35.425-32.52,35.425c-17.963,0-32.521-15.862-32.521-35.425
			s30.196-67.942,30.196-67.942S474.197,328.95,474.197,348.513z"/>
		<path fill="#FFFFFF" d="M474.197,484.084c0,19.561-14.561,35.422-32.52,35.422c-17.963,0-32.521-15.861-32.521-35.422
			c0-19.564,30.196-67.946,30.196-67.946S474.197,464.52,474.197,484.084z"/>
		<path fill="#FFFFFF" d="M473.724,619.654c0,19.562-14.558,35.419-32.52,35.419c-17.96,0-32.518-15.856-32.518-35.419
			c0-19.566,30.196-67.949,30.196-67.949S473.724,600.088,473.724,619.654z"/>
	</g>
	<g>
		<path fill="#FFFFFF" d="M376.879,758.608c0,19.563-14.562,35.423-32.521,35.423c-17.962,0-32.521-15.859-32.521-35.423
			c0-19.566,30.199-67.945,30.199-67.945S376.879,739.042,376.879,758.608z"/>
		<path fill="#FFFFFF" d="M376.879,894.839c0,19.561-14.562,35.423-32.521,35.423c-17.962,0-32.521-15.862-32.521-35.423
			c0-19.566,30.199-67.945,30.199-67.945S376.879,875.272,376.879,894.839z"/>
		<path fill="#FFFFFF" d="M376.879,1029.746c0,19.563-14.562,35.426-32.521,35.426c-17.962,0-32.521-15.862-32.521-35.426
			s30.199-67.942,30.199-67.942S376.879,1010.183,376.879,1029.746z"/>
		<path fill="#FFFFFF" d="M376.879,1165.316c0,19.563-14.562,35.423-32.521,35.423c-17.962,0-32.521-15.859-32.521-35.423
			s30.199-67.945,30.199-67.945S376.879,1145.753,376.879,1165.316z"/>
		<path fill="#FFFFFF" d="M376.408,1300.887c0,19.563-14.564,35.42-32.521,35.42c-17.962,0-32.52-15.856-32.52-35.42
			c0-19.566,30.195-67.948,30.195-67.948S376.408,1281.32,376.408,1300.887z"/>
	</g>
	<g>
		<path fill="#FFFFFF" d="M474.197,758.608c0,19.563-14.561,35.423-32.52,35.423c-17.963,0-32.521-15.859-32.521-35.423
			c0-19.566,30.196-67.945,30.196-67.945S474.197,739.042,474.197,758.608z"/>
		<path fill="#FFFFFF" d="M474.197,894.839c0,19.561-14.561,35.423-32.52,35.423c-17.963,0-32.521-15.862-32.521-35.423
			c0-19.566,30.196-67.945,30.196-67.945S474.197,875.272,474.197,894.839z"/>
		<path fill="#FFFFFF" d="M474.197,1029.746c0,19.563-14.561,35.426-32.52,35.426c-17.963,0-32.521-15.862-32.521-35.426
			s30.196-67.942,30.196-67.942S474.197,1010.183,474.197,1029.746z"/>
		<path fill="#FFFFFF" d="M474.197,1165.316c0,19.563-14.561,35.423-32.52,35.423c-17.963,0-32.521-15.859-32.521-35.423
			s30.196-67.945,30.196-67.945S474.197,1145.753,474.197,1165.316z"/>
		<path fill="#FFFFFF" d="M473.724,1300.887c0,19.563-14.558,35.42-32.52,35.42c-17.96,0-32.518-15.856-32.518-35.42
			c0-19.566,30.196-67.948,30.196-67.948S473.724,1281.32,473.724,1300.887z"/>
	</g>
	<g>
		<path fill="#FFFFFF" d="M559.648,77.373c0,19.566-14.561,35.425-32.52,35.425c-17.96,0-32.523-15.859-32.523-35.425
			c0-19.563,30.199-67.942,30.199-67.942S559.648,57.809,559.648,77.373z"/>
		<path fill="#FFFFFF" d="M559.648,213.606c0,19.561-14.561,35.422-32.52,35.422c-17.96,0-32.523-15.862-32.523-35.422
			c0-19.566,30.199-67.945,30.199-67.945S559.648,194.04,559.648,213.606z"/>
		<path fill="#FFFFFF" d="M559.648,348.513c0,19.563-14.561,35.425-32.52,35.425c-17.96,0-32.523-15.862-32.523-35.425
			s30.199-67.942,30.199-67.942S559.648,328.95,559.648,348.513z"/>
		<path fill="#FFFFFF" d="M559.648,484.084c0,19.561-14.561,35.422-32.52,35.422c-17.96,0-32.523-15.861-32.523-35.422
			c0-19.564,30.199-67.946,30.199-67.946S559.648,464.52,559.648,484.084z"/>
		<path fill="#FFFFFF" d="M559.175,619.654c0,19.562-14.558,35.419-32.517,35.419c-17.963,0-32.523-15.856-32.523-35.419
			c0-19.566,30.199-67.949,30.199-67.949S559.175,600.088,559.175,619.654z"/>
	</g>
	<g>
		<path fill="#FFFFFF" d="M656.967,77.373c0,19.566-14.561,35.425-32.52,35.425c-17.962,0-32.52-15.859-32.52-35.425
			c0-19.563,30.195-67.942,30.195-67.942S656.967,57.809,656.967,77.373z"/>
		<path fill="#FFFFFF" d="M656.967,213.606c0,19.561-14.561,35.422-32.52,35.422c-17.962,0-32.52-15.862-32.52-35.422
			c0-19.566,30.195-67.945,30.195-67.945S656.967,194.04,656.967,213.606z"/>
		<path fill="#FFFFFF" d="M656.967,348.513c0,19.563-14.561,35.425-32.52,35.425c-17.962,0-32.52-15.862-32.52-35.425
			s30.195-67.942,30.195-67.942S656.967,328.95,656.967,348.513z"/>
		<path fill="#FFFFFF" d="M656.967,484.084c0,19.561-14.561,35.422-32.52,35.422c-17.962,0-32.52-15.861-32.52-35.422
			c0-19.564,30.195-67.946,30.195-67.946S656.967,464.52,656.967,484.084z"/>
		<path fill="#FFFFFF" d="M656.494,619.654c0,19.562-14.559,35.419-32.518,35.419c-17.962,0-32.52-15.856-32.52-35.419
			c0-19.566,30.195-67.949,30.195-67.949S656.494,600.088,656.494,619.654z"/>
	</g>
	<g>
		<path fill="#FFFFFF" d="M559.648,758.608c0,19.563-14.561,35.423-32.52,35.423c-17.96,0-32.523-15.859-32.523-35.423
			c0-19.566,30.199-67.945,30.199-67.945S559.648,739.042,559.648,758.608z"/>
		<path fill="#FFFFFF" d="M559.648,894.839c0,19.561-14.561,35.423-32.52,35.423c-17.96,0-32.523-15.862-32.523-35.423
			c0-19.566,30.199-67.945,30.199-67.945S559.648,875.272,559.648,894.839z"/>
		<path fill="#FFFFFF" d="M559.648,1029.746c0,19.563-14.561,35.426-32.52,35.426c-17.96,0-32.523-15.862-32.523-35.426
			s30.199-67.942,30.199-67.942S559.648,1010.183,559.648,1029.746z"/>
		<path fill="#FFFFFF" d="M559.648,1165.316c0,19.563-14.561,35.423-32.52,35.423c-17.96,0-32.523-15.859-32.523-35.423
			s30.199-67.945,30.199-67.945S559.648,1145.753,559.648,1165.316z"/>
		<path fill="#FFFFFF" d="M559.175,1300.887c0,19.563-14.558,35.42-32.517,35.42c-17.963,0-32.523-15.856-32.523-35.42
			c0-19.566,30.199-67.948,30.199-67.948S559.175,1281.32,559.175,1300.887z"/>
	</g>
	<g>
		<path fill="#FFFFFF" d="M656.967,758.608c0,19.563-14.561,35.423-32.52,35.423c-17.962,0-32.52-15.859-32.52-35.423
			c0-19.566,30.195-67.945,30.195-67.945S656.967,739.042,656.967,758.608z"/>
		<path fill="#FFFFFF" d="M656.967,894.839c0,19.561-14.561,35.423-32.52,35.423c-17.962,0-32.52-15.862-32.52-35.423
			c0-19.566,30.195-67.945,30.195-67.945S656.967,875.272,656.967,894.839z"/>
		<path fill="#FFFFFF" d="M656.967,1029.746c0,19.563-14.561,35.426-32.52,35.426c-17.962,0-32.52-15.862-32.52-35.426
			s30.195-67.942,30.195-67.942S656.967,1010.183,656.967,1029.746z"/>
		<path fill="#FFFFFF" d="M656.967,1165.316c0,19.563-14.561,35.423-32.52,35.423c-17.962,0-32.52-15.859-32.52-35.423
			s30.195-67.945,30.195-67.945S656.967,1145.753,656.967,1165.316z"/>
		<path fill="#FFFFFF" d="M656.494,1300.887c0,19.563-14.559,35.42-32.518,35.42c-17.962,0-32.52-15.856-32.52-35.42
			c0-19.566,30.195-67.948,30.195-67.948S656.494,1281.32,656.494,1300.887z"/>
	</g>
	<g>
		<path fill="#FFFFFF" d="M750.727,77.373c0,19.566-14.561,35.425-32.521,35.425c-17.959,0-32.522-15.859-32.522-35.425
			c0-19.563,30.198-67.942,30.198-67.942S750.727,57.809,750.727,77.373z"/>
		<path fill="#FFFFFF" d="M750.727,213.606c0,19.561-14.561,35.422-32.521,35.422c-17.959,0-32.522-15.862-32.522-35.422
			c0-19.566,30.198-67.945,30.198-67.945S750.727,194.04,750.727,213.606z"/>
		<path fill="#FFFFFF" d="M750.727,348.513c0,19.563-14.561,35.425-32.521,35.425c-17.959,0-32.522-15.862-32.522-35.425
			s30.198-67.942,30.198-67.942S750.727,328.95,750.727,348.513z"/>
		<path fill="#FFFFFF" d="M750.727,484.084c0,19.561-14.561,35.422-32.521,35.422c-17.959,0-32.522-15.861-32.522-35.422
			c0-19.564,30.198-67.946,30.198-67.946S750.727,464.52,750.727,484.084z"/>
		<path fill="#FFFFFF" d="M750.253,619.654c0,19.562-14.558,35.419-32.518,35.419c-17.962,0-32.522-15.856-32.522-35.419
			c0-19.566,30.198-67.949,30.198-67.949S750.253,600.088,750.253,619.654z"/>
	</g>
	<g>
		<path fill="#FFFFFF" d="M848.042,77.373c0,19.566-14.558,35.425-32.517,35.425c-17.962,0-32.523-15.859-32.523-35.425
			c0-19.563,30.199-67.942,30.199-67.942S848.042,57.809,848.042,77.373z"/>
		<path fill="#FFFFFF" d="M848.042,213.606c0,19.561-14.558,35.422-32.517,35.422c-17.962,0-32.523-15.862-32.523-35.422
			c0-19.566,30.199-67.945,30.199-67.945S848.042,194.04,848.042,213.606z"/>
		<path fill="#FFFFFF" d="M848.042,348.513c0,19.563-14.558,35.425-32.517,35.425c-17.962,0-32.523-15.862-32.523-35.425
			s30.199-67.942,30.199-67.942S848.042,328.95,848.042,348.513z"/>
		<path fill="#FFFFFF" d="M848.042,484.084c0,19.561-14.558,35.422-32.517,35.422c-17.962,0-32.523-15.861-32.523-35.422
			c0-19.564,30.199-67.946,30.199-67.946S848.042,464.52,848.042,484.084z"/>
		<path fill="#FFFFFF" d="M847.572,619.654c0,19.562-14.559,35.419-32.521,35.419c-17.959,0-32.52-15.856-32.52-35.419
			c0-19.566,30.198-67.949,30.198-67.949S847.572,600.088,847.572,619.654z"/>
	</g>
	<g>
		<path fill="#FFFFFF" d="M750.727,758.608c0,19.563-14.561,35.423-32.521,35.423c-17.959,0-32.522-15.859-32.522-35.423
			c0-19.566,30.198-67.945,30.198-67.945S750.727,739.042,750.727,758.608z"/>
		<path fill="#FFFFFF" d="M750.727,894.839c0,19.561-14.561,35.423-32.521,35.423c-17.959,0-32.522-15.862-32.522-35.423
			c0-19.566,30.198-67.945,30.198-67.945S750.727,875.272,750.727,894.839z"/>
		<path fill="#FFFFFF" d="M750.727,1029.746c0,19.563-14.561,35.426-32.521,35.426c-17.959,0-32.522-15.862-32.522-35.426
			s30.198-67.942,30.198-67.942S750.727,1010.183,750.727,1029.746z"/>
		<path fill="#FFFFFF" d="M750.727,1165.316c0,19.563-14.561,35.423-32.521,35.423c-17.959,0-32.522-15.859-32.522-35.423
			s30.198-67.945,30.198-67.945S750.727,1145.753,750.727,1165.316z"/>
		<path fill="#FFFFFF" d="M750.253,1300.887c0,19.563-14.558,35.42-32.518,35.42c-17.962,0-32.522-15.856-32.522-35.42
			c0-19.566,30.198-67.948,30.198-67.948S750.253,1281.32,750.253,1300.887z"/>
	</g>
	<g>
		<path fill="#FFFFFF" d="M848.042,758.608c0,19.563-14.558,35.423-32.517,35.423c-17.962,0-32.523-15.859-32.523-35.423
			c0-19.566,30.199-67.945,30.199-67.945S848.042,739.042,848.042,758.608z"/>
		<path fill="#FFFFFF" d="M848.042,894.839c0,19.561-14.558,35.423-32.517,35.423c-17.962,0-32.523-15.862-32.523-35.423
			c0-19.566,30.199-67.945,30.199-67.945S848.042,875.272,848.042,894.839z"/>
		<path fill="#FFFFFF" d="M848.042,1029.746c0,19.563-14.558,35.426-32.517,35.426c-17.962,0-32.523-15.862-32.523-35.426
			s30.199-67.942,30.199-67.942S848.042,1010.183,848.042,1029.746z"/>
		<path fill="#FFFFFF" d="M848.042,1165.316c0,19.563-14.558,35.423-32.517,35.423c-17.962,0-32.523-15.859-32.523-35.423
			s30.199-67.945,30.199-67.945S848.042,1145.753,848.042,1165.316z"/>
		<path fill="#FFFFFF" d="M847.572,1300.887c0,19.563-14.559,35.42-32.521,35.42c-17.959,0-32.52-15.856-32.52-35.42
			c0-19.566,30.198-67.948,30.198-67.948S847.572,1281.32,847.572,1300.887z"/>
	</g>
</g>
<rect x="90.129" y="1441.189" fill="none" width="567.783" height="152.812"/>
<text transform="matrix(1 0 0 1 90.1279 1510.8838)" fill="#FFFFFF" font-family="'ProximaNova-Regular'" font-size="104.4902">100 Gallons</text>
</svg>
