<?xml version="1.0" encoding="utf-8"?>
<!-- Generator: Adobe Illustrator 16.0.4, SVG Export Plug-In . SVG Version: 6.00 Build 0)  -->
<!DOCTYPE svg PUBLIC "-//W3C//DTD SVG 1.1//EN" "http://www.w3.org/Graphics/SVG/1.1/DTD/svg11.dtd">
<svg version="1.1" id="Layer_1" xmlns="http://www.w3.org/2000/svg" xmlns:xlink="http://www.w3.org/1999/xlink" x="0px" y="0px"
	 width="486px" height="475.938px" viewBox="-68.406 0 486 475.938" enable-background="new -68.406 0 486 475.938"
	 xml:space="preserve">
<g>
	<path fill="#CCCCCC" d="M65.935,276.814c0,0,39.659-107.877,96.556-158.73c58.104-55.147,251.104-19.147,251.104-19.147l3,54
		c0,0-191.699-39.482-232,10c-36.699,37.518-65.419,131.13-65.419,131.13L65.935,276.814z"/>
	<path fill="#CCCCCC" d="M157.644,408.699c4.255-41.031,5.48-94.765-12.05-121.762c-26.138-40.256-64.745-48.138-105-22
		C12.895,282.924-13.229,329.8-30.081,365.442L157.644,408.699z"/>
	
		<rect x="-56.684" y="393.69" transform="matrix(0.9745 0.2245 -0.2245 0.9745 94.8416 -2.0702)" fill="#CCCCCC" width="226.414" height="44.511"/>
</g>
</svg>
