<?xml version="1.0" encoding="utf-8"?>
<!-- Generator: Adobe Illustrator 16.0.4, SVG Export Plug-In . SVG Version: 6.00 Build 0)  -->
<!DOCTYPE svg PUBLIC "-//W3C//DTD SVG 1.1//EN" "http://www.w3.org/Graphics/SVG/1.1/DTD/svg11.dtd">
<svg version="1.1" id="Layer_1" xmlns="http://www.w3.org/2000/svg" xmlns:xlink="http://www.w3.org/1999/xlink" x="0px" y="0px"
	 width="322px" height="422.938px" viewBox="-68.406 0 322 422.938" enable-background="new -68.406 0 322 422.938"
	 xml:space="preserve">
<rect x="51.428" y="26.729" transform="matrix(0.9591 0.283 -0.283 0.9591 18.7315 -13.5974)" fill="#3F90A5" width="10" height="62.609"/>
<rect x="23.819" y="121.969" transform="matrix(0.9591 0.283 -0.283 0.9591 44.55 -1.8903)" fill="#3F90A5" width="10" height="62.609"/>
<rect x="0.584" y="210.739" transform="matrix(0.9591 0.283 -0.283 0.9591 68.7199 8.3128)" fill="#3F90A5" width="10" height="62.609"/>
<rect x="-23.746" y="298.615" transform="matrix(0.9591 0.2831 -0.2831 0.9591 92.6312 18.8032)" fill="#3F90A5" width="10" height="62.609"/>
<g>
	
		<rect x="107.755" y="37.082" transform="matrix(0.9727 0.2321 -0.2321 0.9727 18.9496 -24.3007)" fill="#3F90A5" width="10" height="62.61"/>
	
		<rect x="85.196" y="133.644" transform="matrix(0.9727 0.232 -0.232 0.9727 40.735 -16.4267)" fill="#3F90A5" width="10" height="62.61"/>
	
		<rect x="66.666" y="223.514" transform="matrix(0.9727 0.2321 -0.2321 0.9727 61.0916 -9.6748)" fill="#3F90A5" width="10.001" height="62.609"/>
	
		<rect x="46.995" y="312.548" transform="matrix(0.9727 0.2321 -0.2321 0.9727 81.2369 -2.6774)" fill="#3F90A5" width="10" height="62.61"/>
</g>
<g>
	
		<rect x="70.735" y="64.549" transform="matrix(0.9694 0.2456 -0.2456 0.9694 25.8576 -15.6629)" fill="#3F90A5" width="10" height="62.61"/>
	
		<rect x="46.837" y="160.787" transform="matrix(0.9694 0.2456 -0.2456 0.9694 48.7564 -6.8475)" fill="#3F90A5" width="10" height="62.61"/>
	
		<rect x="27.06" y="250.391" transform="matrix(0.9694 0.2456 -0.2456 0.9694 70.1571 0.753)" fill="#3F90A5" width="10" height="62.61"/>
	
		<rect x="6.153" y="339.142" transform="matrix(0.9694 0.2456 -0.2456 0.9694 91.3243 8.6074)" fill="#3F90A5" width="10" height="62.611"/>
</g>
<g>
	
		<rect x="175.243" y="47.008" transform="matrix(0.9894 0.145 -0.145 0.9894 13.2626 -25.3114)" fill="#3F90A5" width="10" height="62.609"/>
	
		<rect x="161.329" y="145.188" transform="matrix(0.9894 0.145 -0.145 0.9894 27.343 -22.248)" fill="#3F90A5" width="10" height="62.61"/>
	
		<rect x="150.834" y="236.347" transform="matrix(0.9894 0.145 -0.145 0.9894 40.463 -19.7699)" fill="#3F90A5" width="10" height="62.608"/>
	
		<rect x="139.13" y="326.773" transform="matrix(0.9894 0.1449 -0.1449 0.9894 53.417 -17.1078)" fill="#3F90A5" width="10" height="62.611"/>
</g>
<g>
	
		<rect x="132.583" y="71.619" transform="matrix(0.9831 0.1831 -0.1831 0.9831 21.1718 -23.4518)" fill="#3F90A5" width="10" height="62.609"/>
	
		<rect x="114.878" y="169.188" transform="matrix(0.9831 0.1832 -0.1832 0.9831 38.7586 -18.5683)" fill="#3F90A5" width="10" height="62.61"/>
	
		<rect x="100.863" y="259.872" transform="matrix(0.9831 0.1832 -0.1832 0.9831 55.1344 -14.466)" fill="#3F90A5" width="10" height="62.609"/>
	
		<rect x="85.667" y="349.779" transform="matrix(0.9831 0.1832 -0.1832 0.9831 71.348 -10.1605)" fill="#3F90A5" width="10" height="62.609"/>
</g>
<rect x="210.928" y="68.917" transform="matrix(0.9911 0.1332 -0.1332 0.9911 15.2674 -27.8589)" fill="#3F90A5" width="10" height="62.608"/>
<rect x="206.561" y="152.162" transform="matrix(0.9911 0.1331 -0.1331 0.9911 26.31 -26.5338)" fill="#3F90A5" width="10.001" height="62.609"/>
<rect x="197.153" y="243.439" transform="matrix(0.9911 0.1332 -0.1332 0.9911 38.3972 -24.4786)" fill="#3F90A5" width="10" height="62.608"/>
<rect x="186.526" y="333.998" transform="matrix(0.9911 0.1332 -0.1332 0.9911 50.37 -22.2578)" fill="#3F90A5" width="9.999" height="62.61"/>
</svg>
