<?xml version="1.0" encoding="utf-8"?>
<!-- Generator: Adobe Illustrator 16.0.4, SVG Export Plug-In . SVG Version: 6.00 Build 0)  -->
<!DOCTYPE svg PUBLIC "-//W3C//DTD SVG 1.1//EN" "http://www.w3.org/Graphics/SVG/1.1/DTD/svg11.dtd">
<svg version="1.1" id="Layer_1" xmlns="http://www.w3.org/2000/svg" xmlns:xlink="http://www.w3.org/1999/xlink" x="0px" y="0px"
	 width="193px" height="195px" viewBox="-196.406 39.938 193 195" enable-background="new -196.406 39.938 193 195"
	 xml:space="preserve">
<circle fill="#3F90A5" cx="-98.49" cy="138.357" r="85.922"/>
<path fill="#FFFFFF" d="M-97.966,91.538c-25.958,0-47,21.041-47,47s21.041,47,47,47c25.959,0,47-21.041,47-47
	S-72.007,91.538-97.966,91.538z M-97.966,171.96c-18.428,0-33.422-14.994-33.422-33.422c0-18.428,14.993-33.422,33.422-33.422
	c18.429,0,33.422,14.993,33.422,33.422C-64.544,156.966-79.537,171.96-97.966,171.96z M-97.966,144.804
	c-3.462,0-6.266-2.805-6.266-6.267c0-3.462,2.804-6.267,6.266-6.267c3.461,0,6.267,2.804,6.267,6.267
	C-91.699,141.999-94.505,144.804-97.966,144.804z M-97.966,110.338c3.191,0,6.577,0.874,6.577,0.874
	c1.389,0.362,1.938,1.673,1.218,2.917l-6.487,11.214c-0.719,1.242-1.894,1.242-2.613-0.002l-6.469-11.22
	c-0.719-1.244-0.168-2.554,1.221-2.915C-104.519,111.208-101.148,110.338-97.966,110.338z M-99.273,151.73
	c0.718-1.24,1.895-1.24,2.613,0.003l6.471,11.219c0.719,1.245,0.168,2.554-1.224,2.914c0,0-3.372,0.87-6.553,0.87
	c-3.189,0-6.576-0.875-6.576-0.875c-1.39-0.362-1.938-1.673-1.219-2.917L-99.273,151.73z M-122.385,124.437
	c1.594-2.761,4.047-5.255,4.047-5.255c1.004-1.022,2.415-0.844,3.131,0.4l6.469,11.225c0.716,1.244,0.13,2.264-1.308,2.264
	l-12.95-0.007c-1.437,0-2.295-1.132-1.913-2.517C-124.91,130.546-123.977,127.196-122.385,124.437z M-87.194,146.269
	c-0.716-1.244-0.129-2.265,1.309-2.265l12.95,0.005c1.438,0,2.298,1.132,1.913,2.52c0,0-0.934,3.35-2.525,6.11
	c-1.593,2.761-4.046,5.255-4.046,5.255c-1.005,1.022-2.415,0.844-3.131-0.401L-87.194,146.269z M-122.385,152.639
	c-1.596-2.764-2.53-6.135-2.53-6.135c-0.385-1.382,0.478-2.512,1.915-2.509l12.954,0.011c1.436,0,2.024,1.015,1.305,2.264
	l-6.481,11.209c-0.717,1.244-2.126,1.422-3.134,0.398C-118.358,157.876-120.795,155.393-122.385,152.639z M-85.885,133.073
	c-1.435-0.002-2.024-1.017-1.305-2.264l6.48-11.212c0.718-1.247,2.128-1.425,3.135-0.398c0,0,2.438,2.484,4.028,5.24
	c1.597,2.762,2.53,6.133,2.53,6.133c0.385,1.382-0.476,2.514-1.911,2.512L-85.885,133.073z"/>
</svg>
