<?xml version="1.0" encoding="utf-8"?>
<!-- Generator: Adobe Illustrator 16.0.4, SVG Export Plug-In . SVG Version: 6.00 Build 0)  -->
<!DOCTYPE svg PUBLIC "-//W3C//DTD SVG 1.1//EN" "http://www.w3.org/Graphics/SVG/1.1/DTD/svg11.dtd">
<svg version="1.1" id="Layer_1" xmlns="http://www.w3.org/2000/svg" xmlns:xlink="http://www.w3.org/1999/xlink" x="0px" y="0px"
	 width="848px" height="920.5px" viewBox="28.5 0 848 920.5" enable-background="new 28.5 0 848 920.5" xml:space="preserve">
<g>
	<path fill="#FFFFFF" d="M141.647,123.648c0,19.795-14.732,35.841-32.904,35.841c-18.172,0-32.904-16.046-32.904-35.841
		s30.554-68.745,30.554-68.745S141.647,103.853,141.647,123.648z"/>
	<path fill="#FFFFFF" d="M141.647,261.484c0,19.793-14.732,35.839-32.904,35.839c-18.172,0-32.904-16.046-32.904-35.839
		c0-19.797,30.554-68.745,30.554-68.745S141.647,241.688,141.647,261.484z"/>
	<path fill="#FFFFFF" d="M141.647,397.981c0,19.793-14.732,35.841-32.904,35.841c-18.172,0-32.904-16.048-32.904-35.841
		c0-19.795,30.554-68.745,30.554-68.745S141.647,378.186,141.647,397.981z"/>
	<path fill="#FFFFFF" d="M141.647,535.148c0,19.793-14.732,35.839-32.904,35.839c-18.172,0-32.904-16.046-32.904-35.839
		c0-19.795,30.554-68.747,30.554-68.747S141.647,515.354,141.647,535.148z"/>
	<path fill="#FFFFFF" d="M141.169,672.314c0,19.795-14.732,35.838-32.902,35.838c-18.174,0-32.904-16.043-32.904-35.838
		s30.552-68.747,30.552-68.747S141.169,652.52,141.169,672.314z"/>
</g>
<g>
	<path fill="#FFFFFF" d="M240.112,123.648c0,19.795-14.732,35.841-32.902,35.841c-18.174,0-32.904-16.046-32.904-35.841
		s30.552-68.745,30.552-68.745S240.112,103.853,240.112,123.648z"/>
	<path fill="#FFFFFF" d="M240.112,261.484c0,19.793-14.732,35.839-32.902,35.839c-18.174,0-32.904-16.046-32.904-35.839
		c0-19.797,30.552-68.745,30.552-68.745S240.112,241.688,240.112,261.484z"/>
	<path fill="#FFFFFF" d="M240.112,397.981c0,19.793-14.732,35.841-32.902,35.841c-18.174,0-32.904-16.048-32.904-35.841
		c0-19.795,30.552-68.745,30.552-68.745S240.112,378.186,240.112,397.981z"/>
	<path fill="#FFFFFF" d="M240.112,535.148c0,19.793-14.732,35.839-32.902,35.839c-18.174,0-32.904-16.046-32.904-35.839
		c0-19.795,30.552-68.747,30.552-68.747S240.112,515.354,240.112,535.148z"/>
	<path fill="#FFFFFF" d="M239.633,672.314c0,19.795-14.73,35.838-32.902,35.838s-32.902-16.043-32.902-35.838
		s30.552-68.747,30.552-68.747S239.633,652.52,239.633,672.314z"/>
</g>
<g>
	<path fill="#FFFFFF" d="M338.578,122.597c0,19.795-14.732,35.841-32.902,35.841c-18.174,0-32.904-16.045-32.904-35.841
		c0-19.795,30.552-68.745,30.552-68.745S338.578,102.802,338.578,122.597z"/>
	<path fill="#FFFFFF" d="M338.578,260.434c0,19.793-14.732,35.839-32.902,35.839c-18.174,0-32.904-16.046-32.904-35.839
		c0-19.797,30.552-68.745,30.552-68.745S338.578,240.637,338.578,260.434z"/>
	<path fill="#FFFFFF" d="M338.578,396.931c0,19.792-14.732,35.84-32.902,35.84c-18.174,0-32.904-16.048-32.904-35.84
		c0-19.795,30.552-68.745,30.552-68.745S338.578,377.135,338.578,396.931z"/>
	<path fill="#FFFFFF" d="M338.578,534.098c0,19.793-14.732,35.839-32.902,35.839c-18.174,0-32.904-16.046-32.904-35.839
		c0-19.795,30.552-68.747,30.552-68.747S338.578,514.303,338.578,534.098z"/>
	<path fill="#FFFFFF" d="M338.1,671.264c0,19.795-14.73,35.838-32.902,35.838c-18.172,0-32.902-16.043-32.902-35.838
		s30.552-68.747,30.552-68.747S338.1,651.469,338.1,671.264z"/>
</g>
<g>
	<path fill="#FFFFFF" d="M437.042,122.597c0,19.795-14.73,35.841-32.902,35.841s-32.902-16.045-32.902-35.841
		c0-19.795,30.552-68.745,30.552-68.745S437.042,102.802,437.042,122.597z"/>
	<path fill="#FFFFFF" d="M437.042,260.434c0,19.793-14.73,35.839-32.902,35.839s-32.902-16.046-32.902-35.839
		c0-19.797,30.552-68.745,30.552-68.745S437.042,240.637,437.042,260.434z"/>
	<path fill="#FFFFFF" d="M437.042,396.931c0,19.792-14.73,35.84-32.902,35.84s-32.902-16.048-32.902-35.84
		c0-19.795,30.552-68.745,30.552-68.745S437.042,377.135,437.042,396.931z"/>
	<path fill="#FFFFFF" d="M437.042,534.098c0,19.793-14.73,35.839-32.902,35.839s-32.902-16.046-32.902-35.839
		c0-19.795,30.552-68.747,30.552-68.747S437.042,514.303,437.042,534.098z"/>
	<path fill="#FFFFFF" d="M436.566,671.264c0,19.795-14.73,35.838-32.904,35.838c-18.17,0-32.902-16.043-32.902-35.838
		s30.554-68.747,30.554-68.747S436.566,651.469,436.566,671.264z"/>
</g>
<g>
	<path fill="#FFFFFF" d="M535.508,122.597c0,19.795-14.73,35.841-32.902,35.841s-32.902-16.045-32.902-35.841
		c0-19.795,30.553-68.745,30.553-68.745S535.508,102.802,535.508,122.597z"/>
	<path fill="#FFFFFF" d="M535.508,260.434c0,19.793-14.73,35.839-32.902,35.839s-32.902-16.046-32.902-35.839
		c0-19.797,30.553-68.745,30.553-68.745S535.508,240.637,535.508,260.434z"/>
	<path fill="#FFFFFF" d="M535.508,396.931c0,19.792-14.73,35.84-32.902,35.84s-32.902-16.048-32.902-35.84
		c0-19.795,30.553-68.745,30.553-68.745S535.508,377.135,535.508,396.931z"/>
	<path fill="#FFFFFF" d="M535.508,534.098c0,19.793-14.73,35.839-32.902,35.839s-32.902-16.046-32.902-35.839
		c0-19.795,30.553-68.747,30.553-68.747S535.508,514.303,535.508,534.098z"/>
	<path fill="#FFFFFF" d="M535.032,671.264c0,19.795-14.73,35.838-32.904,35.838c-18.17,0-32.902-16.043-32.902-35.838
		s30.555-68.747,30.555-68.747S535.032,651.469,535.032,671.264z"/>
</g>
<g>
	<path fill="#FFFFFF" d="M633.974,123.648c0,19.795-14.73,35.841-32.904,35.841c-18.169,0-32.902-16.046-32.902-35.841
		s30.554-68.745,30.554-68.745S633.974,103.853,633.974,123.648z"/>
	<path fill="#FFFFFF" d="M633.974,261.484c0,19.793-14.73,35.839-32.904,35.839c-18.169,0-32.902-16.046-32.902-35.839
		c0-19.797,30.554-68.745,30.554-68.745S633.974,241.688,633.974,261.484z"/>
	<path fill="#FFFFFF" d="M633.974,397.981c0,19.793-14.73,35.841-32.904,35.841c-18.169,0-32.902-16.048-32.902-35.841
		c0-19.795,30.554-68.745,30.554-68.745S633.974,378.186,633.974,397.981z"/>
	<path fill="#FFFFFF" d="M633.974,535.148c0,19.793-14.73,35.839-32.904,35.839c-18.169,0-32.902-16.046-32.902-35.839
		c0-19.795,30.554-68.747,30.554-68.747S633.974,515.354,633.974,535.148z"/>
	<path fill="#FFFFFF" d="M633.498,672.314c0,19.795-14.732,35.838-32.904,35.838s-32.904-16.043-32.904-35.838
		s30.555-68.747,30.555-68.747S633.498,652.52,633.498,672.314z"/>
</g>
<g>
	<path fill="#FFFFFF" d="M732.44,123.648c0,19.795-14.73,35.841-32.904,35.841c-18.17,0-32.902-16.046-32.902-35.841
		s30.555-68.745,30.555-68.745S732.44,103.853,732.44,123.648z"/>
	<path fill="#FFFFFF" d="M732.44,261.484c0,19.793-14.73,35.839-32.904,35.839c-18.17,0-32.902-16.046-32.902-35.839
		c0-19.797,30.555-68.745,30.555-68.745S732.44,241.688,732.44,261.484z"/>
	<path fill="#FFFFFF" d="M732.44,397.981c0,19.793-14.73,35.841-32.904,35.841c-18.17,0-32.902-16.048-32.902-35.841
		c0-19.795,30.555-68.745,30.555-68.745S732.44,378.186,732.44,397.981z"/>
	<path fill="#FFFFFF" d="M732.44,535.148c0,19.793-14.73,35.839-32.904,35.839c-18.17,0-32.902-16.046-32.902-35.839
		c0-19.795,30.555-68.747,30.555-68.747S732.44,515.354,732.44,535.148z"/>
	<path fill="#FFFFFF" d="M731.964,672.314c0,19.795-14.732,35.838-32.904,35.838c-18.172,0-32.904-16.043-32.904-35.838
		s30.554-68.747,30.554-68.747S731.964,652.52,731.964,672.314z"/>
</g>
<g>
	<path fill="#FFFFFF" d="M830.906,123.648c0,19.795-14.732,35.841-32.904,35.841s-32.904-16.046-32.904-35.841
		s30.555-68.745,30.555-68.745S830.906,103.853,830.906,123.648z"/>
	<path fill="#FFFFFF" d="M830.906,261.484c0,19.793-14.732,35.839-32.904,35.839s-32.904-16.046-32.904-35.839
		c0-19.797,30.555-68.745,30.555-68.745S830.906,241.688,830.906,261.484z"/>
	<path fill="#FFFFFF" d="M830.906,397.981c0,19.793-14.732,35.841-32.904,35.841s-32.904-16.048-32.904-35.841
		c0-19.795,30.555-68.745,30.555-68.745S830.906,378.186,830.906,397.981z"/>
</g>
<rect x="264.528" y="840.824" fill="none" width="377.45" height="110.637"/>
<text transform="matrix(1 0 0 1 264.5283 891.2822)" fill="#FFFFFF" font-family="'ProximaNova-Regular'" font-size="75.6503">37 Gallons</text>
</svg>
