<?xml version="1.0" encoding="utf-8"?>
<!-- Generator: Adobe Illustrator 16.0.4, SVG Export Plug-In . SVG Version: 6.00 Build 0)  -->
<!DOCTYPE svg PUBLIC "-//W3C//DTD SVG 1.1//EN" "http://www.w3.org/Graphics/SVG/1.1/DTD/svg11.dtd">
<svg version="1.1" id="Layer_1" xmlns="http://www.w3.org/2000/svg" xmlns:xlink="http://www.w3.org/1999/xlink" x="0px" y="0px"
	 width="940.5px" height="972.5px" viewBox="0 0 940.5 972.5" enable-background="new 0 0 940.5 972.5" xml:space="preserve">
<path fill="#3F90A5" d="M243.914,402.532l151.862-146.998c225.162,12.354,327.94,69.064,391.904,125.721l-519.761,228.18
	c0,0,21.688,91.233,0,0C254.867,554.528,246.022,487.021,243.914,402.532z M709.731,258.325
	c-60.998-25.324-141.82-42.861-259.804-55.208l-42.162-43.557l10.595-10.255C577.285-4.532,750.145,124.577,709.731,258.325z
	 M376.787,105.176L40.102,431.081l21.082,21.778c32.034-10.487,118.45-51.952,128.579,2.091
	c17.613,234.919,59.078,321.336,142.833,407.861c27.918,28.843,75.51,59.163,132.652,72.259l5.128,5.297l3.531-3.418
	c25.979,5.638,53.761,7.248,82.188,4.813l369.059-357.239c3.357-28.334,2.652-56.153-2.138-82.302l3.53-3.418l-5.128-5.298
	c-11.229-57.538-39.414-105.5-67.904-134.932c-27.918-28.842-55.342-52.461-88.025-73.27
	C832.233,99.842,587.509-98.798,376.787,105.176z"/>
</svg>
