<?xml version="1.0" encoding="utf-8"?>
<!-- Generator: Adobe Illustrator 16.0.4, SVG Export Plug-In . SVG Version: 6.00 Build 0)  -->
<!DOCTYPE svg PUBLIC "-//W3C//DTD SVG 1.1//EN" "http://www.w3.org/Graphics/SVG/1.1/DTD/svg11.dtd">
<svg version="1.1" id="Layer_1" xmlns="http://www.w3.org/2000/svg" xmlns:xlink="http://www.w3.org/1999/xlink" x="0px" y="0px"
	 width="1353.136px" height="867.086px" viewBox="-642.249 -368.724 1353.136 867.086"
	 enable-background="new -642.249 -368.724 1353.136 867.086" xml:space="preserve">
<path fill="#3F90A5" d="M-483.355,366.821c0,23.848-17.748,43.181-39.641,43.181s-39.641-19.333-39.641-43.181
	s36.81-82.819,36.81-82.819S-483.355,342.974-483.355,366.821z"/>
<path fill="#3F90A5" d="M636.645,6.821c0,23.848-17.748,43.181-39.641,43.181s-39.641-19.333-39.641-43.181
	s36.81-82.819,36.81-82.819S636.645-17.026,636.645,6.821z"/>
<path fill="#3F90A5" d="M504.645,322.821c0,23.848-17.748,43.181-39.641,43.181s-39.641-19.333-39.641-43.181
	s36.81-82.819,36.81-82.819S504.645,298.974,504.645,322.821z"/>
<path fill="#3F90A5" d="M-327.355,102.821c0,23.848-17.748,43.181-39.641,43.181s-39.641-19.333-39.641-43.181
	s36.81-82.819,36.81-82.819S-327.355,78.974-327.355,102.821z"/>
<path fill="#3F90A5" d="M-167.355,362.821c0,23.848-17.748,43.181-39.641,43.181s-39.641-19.333-39.641-43.181
	s36.81-82.819,36.81-82.819S-167.355,338.974-167.355,362.821z"/>
<path fill="#3F90A5" d="M652.645-197.179c0,23.848-17.748,43.181-39.641,43.181s-39.641-19.333-39.641-43.181
	s36.81-82.82,36.81-82.82S652.645-221.026,652.645-197.179z"/>
<path fill="#3F90A5" d="M-483.355,18.821c0,23.848-17.748,43.181-39.641,43.181s-39.641-19.333-39.641-43.181
	s36.81-82.819,36.81-82.819S-483.355-5.026-483.355,18.821z"/>
<path fill="#3F90A5" d="M-307.355-237.179c0,23.848-17.748,43.181-39.641,43.181s-39.641-19.333-39.641-43.181
	s36.81-82.82,36.81-82.82S-307.355-261.026-307.355-237.179z"/>
<path fill="#3F90A5" d="M236.645,410.821c0,23.848-17.748,43.181-39.641,43.181s-39.641-19.333-39.641-43.181
	s36.81-82.819,36.81-82.819S236.645,386.974,236.645,410.821z"/>
</svg>
