<?xml version="1.0" encoding="utf-8"?>
<!-- Generator: Adobe Illustrator 16.0.4, SVG Export Plug-In . SVG Version: 6.00 Build 0)  -->
<!DOCTYPE svg PUBLIC "-//W3C//DTD SVG 1.1//EN" "http://www.w3.org/Graphics/SVG/1.1/DTD/svg11.dtd">
<svg version="1.1" id="Layer_1" xmlns="http://www.w3.org/2000/svg" xmlns:xlink="http://www.w3.org/1999/xlink" x="0px" y="0px"
	 width="1353.136px" height="867.086px" viewBox="0 0 1353.136 867.086" enable-background="new 0 0 1353.136 867.086"
	 xml:space="preserve">
<path fill="#3F90A5" d="M158.709,705.855c0,23.848-17.748,43.181-39.641,43.181s-39.641-19.333-39.641-43.181
	c0-23.849,36.81-82.819,36.81-82.819S158.709,682.008,158.709,705.855z"/>
<path fill="#3F90A5" d="M1101.691,438.864c0,23.849-17.747,43.181-39.641,43.181c-21.893,0-39.641-19.332-39.641-43.181
	c0-23.848,36.81-82.819,36.81-82.819S1101.691,415.018,1101.691,438.864z"/>
<path fill="#3F90A5" d="M1146.708,661.855c0,23.848-17.748,43.181-39.641,43.181s-39.641-19.333-39.641-43.181
	s36.81-82.819,36.81-82.819S1146.708,638.008,1146.708,661.855z"/>
<path fill="#3F90A5" d="M305.708,558.867c0,23.848-17.748,43.18-39.641,43.18s-39.641-19.332-39.641-43.18
	c0-23.849,36.81-82.82,36.81-82.82S305.708,535.02,305.708,558.867z"/>
<path fill="#3F90A5" d="M474.709,707.617c0,23.848-17.748,43.181-39.641,43.181s-39.641-19.333-39.641-43.181
	c0-23.849,36.81-82.819,36.81-82.819S474.709,683.77,474.709,707.617z"/>
<path fill="#3F90A5" d="M1261.707,306.872c0,23.848-17.747,43.181-39.641,43.181c-21.893,0-39.641-19.333-39.641-43.181
	c0-23.848,36.81-82.82,36.81-82.82S1261.707,283.025,1261.707,306.872z"/>
<path fill="#3F90A5" d="M1057.685,180.859c0,23.848-17.747,43.181-39.641,43.181c-21.893,0-39.641-19.333-39.641-43.181
	c0-23.848,36.81-82.82,36.81-82.82S1057.685,157.012,1057.685,180.859z"/>
<path fill="#3F90A5" d="M191.712,270.847c0,23.848-17.748,43.181-39.641,43.181s-39.641-19.333-39.641-43.181
	c0-23.848,36.81-82.819,36.81-82.819S191.712,247,191.712,270.847z"/>
<path fill="#3F90A5" d="M337.709,137.859c0,23.848-17.748,43.181-39.641,43.181s-39.641-19.333-39.641-43.181
	c0-23.848,36.81-82.82,36.81-82.82S337.709,114.012,337.709,137.859z"/>
<path fill="#3F90A5" d="M878.708,749.855c0,23.848-17.748,43.181-39.641,43.181s-39.641-19.333-39.641-43.181
	c0-23.849,36.81-82.819,36.81-82.819S878.708,726.008,878.708,749.855z"/>
<path fill="#3F90A5" d="M692.69,680.85c0,23.848-17.748,43.181-39.641,43.181s-39.641-19.333-39.641-43.181
	c0-23.849,36.81-82.819,36.81-82.819S692.69,657.002,692.69,680.85z"/>
<path opacity="0.4" fill="#FFFFFF" d="M251.94,518.311c0,0-13.686,27.472-12.125,44.249c1.198,12.881,5.83,18.917,10.772,23.11
	c5.417,4.597,13.038,6.714,19.104,6.265c6.066-0.449,11.375-2.875,11.375-2.875s-12.802,1.401-23.625-5.5
	c-10.334-6.59-12.184-20.329-12-29.5C245.761,538.072,251.94,518.311,251.94,518.311z"/>
<path opacity="0.4" fill="#FFFFFF" d="M638.633,638.913c0,0-13.686,27.472-12.125,44.249c1.198,12.881,5.83,18.917,10.772,23.11
	c5.417,4.597,13.038,6.714,19.104,6.265c6.066-0.449,11.375-2.875,11.375-2.875s-12.802,1.401-23.625-5.5
	c-10.334-6.59-12.184-20.329-12-29.5C632.454,658.675,638.633,638.913,638.633,638.913z"/>
<path opacity="0.4" fill="#FFFFFF" d="M1048.449,398.234c0,0-13.686,27.472-12.125,44.25c1.197,12.881,5.83,18.917,10.771,23.11
	c5.418,4.597,13.038,6.714,19.104,6.265c6.066-0.449,11.375-2.875,11.375-2.875s-12.802,1.401-23.625-5.5
	c-10.334-6.59-12.184-20.329-12-29.5C1042.269,417.996,1048.449,398.234,1048.449,398.234z"/>
<path opacity="0.7" fill="#FFFFFF" d="M283.008,96.793c0,0-13.686,27.472-12.125,44.25c1.197,12.881,5.83,18.917,10.771,23.11
	c5.418,4.597,13.038,6.714,19.104,6.265c6.066-0.449,11.375-2.875,11.375-2.875s-12.802,1.401-23.625-5.5
	c-10.334-6.59-12.184-20.329-12-29.5C276.828,116.555,283.008,96.793,283.008,96.793z"/>
<path opacity="0.4" fill="#FFFFFF" d="M137.888,227.673c0,0-13.686,27.472-12.125,44.25c1.197,12.881,5.83,18.917,10.771,23.11
	c5.418,4.597,13.038,6.714,19.104,6.265c6.066-0.449,11.375-2.875,11.375-2.875s-12.802,1.401-23.625-5.5
	c-10.334-6.59-12.184-20.329-12-29.5C131.708,247.435,137.888,227.673,137.888,227.673z"/>
<path opacity="0.7" fill="#FFFFFF" d="M104.741,664.124c0,0-13.686,27.471-12.125,44.249c1.197,12.881,5.83,18.917,10.771,23.11
	c5.418,4.597,13.038,6.714,19.104,6.265c6.066-0.449,11.375-2.875,11.375-2.875s-12.802,1.401-23.625-5.5
	c-10.334-6.59-12.184-20.329-12-29.501C98.562,683.886,104.741,664.124,104.741,664.124z"/>
<path opacity="0.7" fill="#FFFFFF" d="M420.421,666.684c0,0-13.686,27.471-12.125,44.249c1.197,12.881,5.83,18.917,10.771,23.11
	c5.418,4.597,13.038,6.714,19.104,6.265c6.066-0.449,11.375-2.875,11.375-2.875s-12.802,1.401-23.625-5.5
	c-10.334-6.59-12.184-20.329-12-29.501C414.242,686.445,420.421,666.684,420.421,666.684z"/>
<path opacity="0.7" fill="#FFFFFF" d="M825.302,708.124c0,0-13.686,27.471-12.125,44.249c1.197,12.881,5.83,18.917,10.771,23.11
	c5.418,4.597,13.038,6.714,19.104,6.265c6.066-0.449,11.375-2.875,11.375-2.875s-12.802,1.401-23.625-5.5
	c-10.334-6.59-12.184-20.329-12-29.501C819.123,727.886,825.302,708.124,825.302,708.124z"/>
<path opacity="0.7" fill="#FFFFFF" d="M1091.624,621.803c0,0-13.686,27.471-12.125,44.249c1.197,12.881,5.83,18.917,10.771,23.11
	c5.418,4.597,13.038,6.714,19.104,6.265c6.066-0.449,11.375-2.875,11.375-2.875s-12.802,1.401-23.625-5.5
	c-10.334-6.59-12.184-20.329-12-29.501C1085.444,641.564,1091.624,621.803,1091.624,621.803z"/>
<path opacity="0.7" fill="#FFFFFF" d="M1207.541,265.804c0,0-13.686,27.471-12.125,44.249c1.197,12.881,5.83,18.917,10.771,23.11
	c5.418,4.597,13.038,6.714,19.104,6.265c6.066-0.449,11.375-2.875,11.375-2.875s-12.802,1.401-23.625-5.5
	c-10.334-6.59-12.184-20.329-12-29.501C1201.361,285.565,1207.541,265.804,1207.541,265.804z"/>
<path opacity="0.7" fill="#FFFFFF" d="M1004.421,140.684c0,0-13.686,27.471-12.125,44.249c1.197,12.881,5.83,18.917,10.771,23.11
	c5.418,4.597,13.038,6.714,19.104,6.265c6.066-0.449,11.375-2.875,11.375-2.875s-12.802,1.401-23.625-5.5
	c-10.334-6.59-12.184-20.329-12-29.501C998.242,160.445,1004.421,140.684,1004.421,140.684z"/>
</svg>
