<?xml version="1.0" encoding="utf-8"?>
<!-- Generator: Adobe Illustrator 16.0.4, SVG Export Plug-In . SVG Version: 6.00 Build 0)  -->
<!DOCTYPE svg PUBLIC "-//W3C//DTD SVG 1.1//EN" "http://www.w3.org/Graphics/SVG/1.1/DTD/svg11.dtd">
<svg version="1.1" id="Layer_1" xmlns="http://www.w3.org/2000/svg" xmlns:xlink="http://www.w3.org/1999/xlink" x="0px" y="0px"
	 width="782px" height="566px" viewBox="-218.406 36.938 782 566" enable-background="new -218.406 36.938 782 566"
	 xml:space="preserve">
<g>
	<rect x="-203.906" y="250.438" fill="#0071BC" stroke="#0071BC" stroke-miterlimit="10" width="310" height="328"/>
	<rect x="40.094" y="308.438" fill="#0071BC" stroke="#0071BC" stroke-miterlimit="10" width="348" height="271"/>
	<polygon fill="#0071BC" stroke="#0071BC" stroke-miterlimit="10" points="187.75,181.438 165.25,181.438 158.5,334.438 
		194.5,334.438 	"/>
	<polygon fill="#0071BC" stroke="#0071BC" stroke-width="2" stroke-miterlimit="10" points="-94.069,272.938 -5.944,272.938 
		20.493,171.938 -120.507,171.938 	"/>
	<polygon fill="#0071BC" stroke="#0071BC" stroke-miterlimit="10" points="254.125,181.438 231.625,181.438 224.875,334.438 
		260.875,334.438 	"/>
	<polygon fill="#0071BC" stroke="#0071BC" stroke-miterlimit="10" points="322.75,181.438 300.25,181.438 293.5,334.438 
		329.5,334.438 	"/>
</g>
<g>
	<rect x="132.594" y="365.938" fill="#53C7D3" width="37" height="37"/>
	<rect x="192.594" y="365.938" fill="#53C7D3" width="36" height="37"/>
	<rect x="250.594" y="365.938" fill="#53C7D3" width="37" height="37"/>
	<rect x="309.594" y="365.938" fill="#53C7D3" width="37" height="37"/>
</g>
<g>
	<rect x="132.594" y="424.938" fill="#53C7D3" width="37" height="37"/>
	<rect x="192.594" y="424.938" fill="#53C7D3" width="36" height="37"/>
	<rect x="250.594" y="424.938" fill="#53C7D3" width="37" height="37"/>
	<rect x="309.594" y="424.938" fill="#53C7D3" width="37" height="37"/>
</g>
<g>
	<circle opacity="0.8" fill="#7C7C7C" cx="192.147" cy="90.445" r="22.432"/>
	<circle opacity="0.8" fill="#7C7C7C" cx="231.271" cy="112.877" r="32.343"/>
	<circle opacity="0.8" fill="#7C7C7C" cx="258.919" cy="93.576" r="27.648"/>
	<circle opacity="0.8" fill="#7C7C7C" cx="180.149" cy="130.614" r="32.343"/>
</g>
<g>
	<circle opacity="0.8" fill="#7C7C7C" cx="261.147" cy="91.445" r="22.432"/>
	<circle opacity="0.8" fill="#7C7C7C" cx="300.271" cy="113.877" r="32.343"/>
	<circle opacity="0.8" fill="#7C7C7C" cx="327.919" cy="94.576" r="27.648"/>
	<circle opacity="0.8" fill="#7C7C7C" cx="249.149" cy="131.614" r="32.343"/>
</g>
<g>
	<circle opacity="0.8" fill="#7C7C7C" cx="333.147" cy="92.445" r="22.432"/>
	<circle opacity="0.8" fill="#7C7C7C" cx="372.271" cy="114.877" r="32.343"/>
	<circle opacity="0.8" fill="#7C7C7C" cx="399.919" cy="95.576" r="27.648"/>
	<circle opacity="0.8" fill="#7C7C7C" cx="321.149" cy="132.614" r="32.343"/>
</g>
<g>
	<circle opacity="0.8" fill="#7C7C7C" cx="463.51" cy="85.62" r="22.432"/>
	<circle opacity="0.8" fill="#7C7C7C" cx="483.803" cy="125.896" r="32.342"/>
	<circle opacity="0.8" fill="#7C7C7C" cx="517.51" cy="125.021" r="27.647"/>
	<circle opacity="0.8" fill="#7C7C7C" cx="431.367" cy="112.534" r="32.343"/>
</g>
</svg>
