<?xml version="1.0" encoding="utf-8"?>
<!-- Generator: Adobe Illustrator 16.0.4, SVG Export Plug-In . SVG Version: 6.00 Build 0)  -->
<!DOCTYPE svg PUBLIC "-//W3C//DTD SVG 1.1//EN" "http://www.w3.org/Graphics/SVG/1.1/DTD/svg11.dtd">
<svg version="1.1" id="Layer_1" xmlns="http://www.w3.org/2000/svg" xmlns:xlink="http://www.w3.org/1999/xlink" x="0px" y="0px"
	 width="572.077px" height="408.832px" viewBox="0 0 572.077 408.832" enable-background="new 0 0 572.077 408.832"
	 xml:space="preserve">
<polygon fill="#0071BC" stroke="#0071BC" stroke-miterlimit="10" points="467.854,157.438 462.251,30.438 439.751,30.438 
	434.148,157.438 399.229,157.438 393.626,30.438 371.126,30.438 365.523,157.438 332.854,157.438 327.251,30.438 304.751,30.438 
	299.148,157.438 245.595,157.438 245.595,99.438 179.708,99.438 199.994,21.938 58.994,21.938 79.281,99.438 24.114,99.438 
	24.114,378.463 527.595,378.022 527.595,157.438 "/>
<g>
	<rect x="291.594" y="201.978" fill="#53C7D3" width="37" height="36.997"/>
	<rect x="351.594" y="201.978" fill="#53C7D3" width="36" height="36.997"/>
	<rect x="409.594" y="201.978" fill="#53C7D3" width="37" height="36.997"/>
	<rect x="468.594" y="201.978" fill="#53C7D3" width="37" height="36.997"/>
</g>
<g>
	<rect x="291.594" y="260.974" fill="#53C7D3" width="37" height="37"/>
	<rect x="351.594" y="260.974" fill="#53C7D3" width="36" height="37"/>
	<rect x="409.594" y="260.974" fill="#53C7D3" width="37" height="37"/>
	<rect x="468.594" y="260.974" fill="#53C7D3" width="37" height="37"/>
</g>
</svg>
