<?xml version="1.0" encoding="utf-8"?>
<!-- Generator: Adobe Illustrator 16.0.4, SVG Export Plug-In . SVG Version: 6.00 Build 0)  -->
<!DOCTYPE svg PUBLIC "-//W3C//DTD SVG 1.1//EN" "http://www.w3.org/Graphics/SVG/1.1/DTD/svg11.dtd">
<svg version="1.1" id="Layer_1" xmlns="http://www.w3.org/2000/svg" xmlns:xlink="http://www.w3.org/1999/xlink" x="0px" y="0px"
	 width="193px" height="195px" viewBox="-196.406 39.938 193 195" enable-background="new -196.406 39.938 193 195"
	 xml:space="preserve">
<circle fill="#3F90A5" cx="-98.49" cy="138.357" r="85.922"/>
<path fill="#FFFFFF" d="M-46.826,95.784h-84.51c-2.993,0-5.418,2.482-5.418,5.543v5.543h-12.195c-1.837,0-3.326,1.489-3.326,3.326
	v25.5c0,1.837,1.489,3.326,3.326,3.326h56.543v15.521h-4.435v36.586c0,4.286,3.476,7.761,7.761,7.761
	c4.287,0,7.761-3.475,7.761-7.761v-36.586h-4.435v-18.848c0-1.837-1.489-3.326-3.326-3.326h-56.543v-18.848h8.87v5.543
	c0,3.061,2.426,5.543,5.418,5.543h84.512c2.992,0,5.418-2.482,5.418-5.543v-17.739C-41.407,98.267-43.833,95.784-46.826,95.784z"/>
</svg>
