<?xml version="1.0" encoding="utf-8"?>
<!-- Generator: Adobe Illustrator 16.0.4, SVG Export Plug-In . SVG Version: 6.00 Build 0)  -->
<!DOCTYPE svg PUBLIC "-//W3C//DTD SVG 1.1//EN" "http://www.w3.org/Graphics/SVG/1.1/DTD/svg11.dtd">
<svg version="1.1" id="Layer_1" xmlns="http://www.w3.org/2000/svg" xmlns:xlink="http://www.w3.org/1999/xlink" x="0px" y="0px"
	 width="1440px" height="883.856px" viewBox="0 0 1440 883.856" enable-background="new 0 0 1440 883.856" xml:space="preserve">
<path opacity="0.5" fill="#196475" enable-background="new    " d="M1736.034,256.861c0,0-83.944-66.039-233.959-66.039
	c-150.017,0-200.995,140.996-387.015,146.996S790.042,181.792,604.023,184.794C488.473,186.657,205.767,304.8,76.754,313.8
	c-80.87,5.643-129.013-21-129.013-21l3.516,727.376l1797.166-5.865L1736.034,256.861z"/>
<path opacity="0.5" fill="#196475" enable-background="new    " d="M1739.034,316.861c0,0-83.944-66.039-233.959-66.039
	c-150.017,0-200.995,140.996-387.015,146.996S793.042,241.792,607.023,244.794C491.473,246.657,208.767,364.8,79.754,373.8
	c-80.87,5.643-129.013-21.002-129.013-21.002l3.516,727.378l1797.166-5.865L1739.034,316.861z"/>
<path opacity="0.5" fill="#196475" enable-background="new    " d="M-33.128,240.501c0,0,83.944-42.038,233.959-42.038
	c150.016,0,272.995,117,459.014,123c186.021,6,345.02-156.03,531.038-153.028c186.02,3,345.025,171.084,345.025,171.084
	l-20.494,743.421H-62.487L-33.128,240.501z"/>
<path opacity="0.5" fill="#196475" enable-background="new    " d="M-33.128,204.501c0,0,83.944-42.038,233.959-42.038
	c150.016,0,272.995,117,459.014,123c186.021,6,345.02-156.029,531.038-153.028c186.02,3,345.025,171.086,345.025,171.086
	l-20.494,743.419H-62.487L-33.128,204.501z"/>
</svg>
