<?xml version="1.0" encoding="utf-8"?>
<!-- Generator: Adobe Illustrator 16.0.4, SVG Export Plug-In . SVG Version: 6.00 Build 0)  -->
<!DOCTYPE svg PUBLIC "-//W3C//DTD SVG 1.1//EN" "http://www.w3.org/Graphics/SVG/1.1/DTD/svg11.dtd">
<svg version="1.1" id="Layer_1" xmlns="http://www.w3.org/2000/svg" xmlns:xlink="http://www.w3.org/1999/xlink" x="0px" y="0px"
	 width="1440px" height="883.856px" viewBox="0 0 1440 883.856" enable-background="new 0 0 1440 883.856" xml:space="preserve">
<path opacity="0.5" fill="#196475" enable-background="new    " d="M-12.126,417.52c0,0,83.944-42.039,233.959-42.039
	c150.016,0,272.995,116.999,459.014,122.999c186.02,6,345.019-156.029,531.038-153.027c186.019,3,345.025,171.085,345.025,171.085
	l-12.009,487.091H-33L-12.126,417.52z"/>
<path opacity="0.5" fill="#196475" enable-background="new    " d="M-12.126,381.52c0,0,83.944-42.039,233.959-42.039
	c150.016,0,272.995,116.999,459.014,122.999c186.02,6,345.019-156.028,531.038-153.027c186.019,3,345.025,171.086,345.025,171.086
	l-12.009,487.091H-33L-12.126,381.52z"/>
</svg>
