<?xml version="1.0" encoding="utf-8"?>
<!-- Generator: Adobe Illustrator 16.0.4, SVG Export Plug-In . SVG Version: 6.00 Build 0)  -->
<!DOCTYPE svg PUBLIC "-//W3C//DTD SVG 1.1//EN" "http://www.w3.org/Graphics/SVG/1.1/DTD/svg11.dtd">
<svg version="1.1" id="Layer_1" xmlns="http://www.w3.org/2000/svg" xmlns:xlink="http://www.w3.org/1999/xlink" x="0px" y="0px"
	 width="343.5px" height="520.969px" viewBox="-21.5 0 343.5 520.969" enable-background="new -21.5 0 343.5 520.969"
	 xml:space="preserve">
<rect x="116.428" y="14.728" transform="matrix(-0.9591 -0.283 0.283 -0.9591 224.8647 124.5458)" fill="#3F90A5" width="10" height="62.608"/>
<rect x="88.814" y="109.966" transform="matrix(-0.9591 -0.283 0.283 -0.9591 143.8122 303.3144)" fill="#3F90A5" width="10" height="62.607"/>
<rect x="65.578" y="198.733" transform="matrix(-0.9591 -0.283 0.283 -0.9591 73.1647 470.6437)" fill="#3F90A5" width="10" height="62.608"/>
<rect x="41.252" y="286.617" transform="matrix(-0.9591 -0.2831 0.2831 -0.9591 0.6095 635.9319)" fill="#3F90A5" width="10" height="62.609"/>
<g>
	
		<rect x="172.754" y="25.084" transform="matrix(-0.9727 -0.2321 0.2321 -0.9727 337.5667 152.4943)" fill="#3F90A5" width="10" height="62.61"/>
	
		<rect x="150.201" y="121.64" transform="matrix(-0.9727 -0.232 0.232 -0.9727 270.6837 337.7228)" fill="#3F90A5" width="9.999" height="62.609"/>
	
		<rect x="131.658" y="211.516" transform="matrix(-0.9727 -0.232 0.232 -0.9727 213.2505 510.7229)" fill="#3F90A5" width="10.001" height="62.61"/>
	
		<rect x="102.658" y="414.516" transform="matrix(-0.9727 -0.232 0.232 -0.9727 108.9438 904.4554)" fill="#3F90A5" width="10.001" height="62.61"/>
	
		<rect x="112.004" y="300.551" transform="matrix(-0.9727 -0.2321 0.2321 -0.9727 153.7805 681.8081)" fill="#3F90A5" width="10" height="62.611"/>
</g>
<g>
	
		<rect x="135.733" y="52.552" transform="matrix(-0.9694 -0.2456 0.2456 -0.9694 256.5618 199.7113)" fill="#3F90A5" width="10.001" height="62.612"/>
	
		<rect x="111.829" y="148.792" transform="matrix(-0.9694 -0.2456 0.2456 -0.9694 185.848 383.3726)" fill="#3F90A5" width="10" height="62.612"/>
	
		<rect x="92.051" y="238.397" transform="matrix(-0.9694 -0.2456 0.2456 -0.9694 124.8908 554.9814)" fill="#3F90A5" width="10" height="62.612"/>
	
		<rect x="15.051" y="432.397" transform="matrix(-0.9694 -0.2456 0.2456 -0.9694 -74.3975 918.1281)" fill="#3F90A5" width="10" height="62.612"/>
	
		<rect x="71.154" y="327.152" transform="matrix(-0.9694 -0.2456 0.2456 -0.9694 61.9419 724.6414)" fill="#3F90A5" width="10.001" height="62.613"/>
</g>
<g>
	
		<rect x="240.24" y="35.003" transform="matrix(-0.9894 -0.145 0.145 -0.9894 478.2703 167.4784)" fill="#3F90A5" width="9.999" height="62.607"/>
	
		<rect x="226.318" y="133.188" transform="matrix(-0.9894 -0.145 0.145 -0.9894 436.3423 360.7828)" fill="#3F90A5" width="9.999" height="62.608"/>
	
		<rect x="215.836" y="224.337" transform="matrix(-0.9894 -0.1449 0.1449 -0.9894 402.2931 540.5852)" fill="#3F90A5" width="10" height="62.606"/>
	
		<rect x="204.836" y="434.337" transform="matrix(-0.9894 -0.1449 0.1449 -0.9894 349.9759 956.7742)" fill="#3F90A5" width="10" height="62.606"/>
	
		<rect x="204.134" y="314.756" transform="matrix(-0.9894 -0.1449 0.1449 -0.9894 365.9087 718.7737)" fill="#3F90A5" width="10" height="62.608"/>
</g>
<g>
	
		<rect x="197.583" y="59.619" transform="matrix(-0.9831 -0.1831 0.1831 -0.9831 385.0968 217.401)" fill="#3F90A5" width="10.001" height="62.609"/>
	
		<rect x="179.879" y="157.192" transform="matrix(-0.9831 -0.1832 0.1832 -0.9831 332.1024 407.6724)" fill="#3F90A5" width="10.001" height="62.611"/>
	
		<rect x="165.864" y="247.878" transform="matrix(-0.9831 -0.1832 0.1832 -0.9831 287.6965 584.9421)" fill="#3F90A5" width="10.001" height="62.611"/>
	
		<rect x="150.668" y="337.788" transform="matrix(-0.9831 -0.1832 0.1832 -0.9831 241.0815 760.4579)" fill="#3F90A5" width="10" height="62.61"/>
</g>
<rect x="275.925" y="56.928" transform="matrix(-0.9911 -0.1332 0.1332 -0.9911 547.5912 213.1002)" fill="#3F90A5" width="9.999" height="62.609"/>
<rect x="271.568" y="140.154" transform="matrix(-0.9911 -0.1331 0.1331 -0.9911 527.8477 378.2132)" fill="#3F90A5" width="10.001" height="62.609"/>
<rect x="262.155" y="231.442" transform="matrix(-0.9911 -0.1332 0.1332 -0.9911 496.9322 558.736)" fill="#3F90A5" width="10" height="62.609"/>
<rect x="251.534" y="322" transform="matrix(-0.9911 -0.1331 0.1331 -0.9911 463.7474 737.6177)" fill="#3F90A5" width="9.998" height="62.611"/>
</svg>
