<?xml version="1.0" encoding="utf-8"?>
<!-- Generator: Adobe Illustrator 16.0.4, SVG Export Plug-In . SVG Version: 6.00 Build 0)  -->
<!DOCTYPE svg PUBLIC "-//W3C//DTD SVG 1.1//EN" "http://www.w3.org/Graphics/SVG/1.1/DTD/svg11.dtd">
<svg version="1.1" id="Layer_1" xmlns="http://www.w3.org/2000/svg" xmlns:xlink="http://www.w3.org/1999/xlink" x="0px" y="0px"
	 width="486px" height="475.938px" viewBox="0 0 486 475.938" enable-background="new 0 0 486 475.938" xml:space="preserve">
<g>
	<path fill="#CCCCCC" d="M128.932,243.816c0,0,36.065-107.846,96.556-158.731C287.997,30.97,479.997,64.97,479.997,64.97v51
		c0,0-192.104-35.514-232.405,13.968c-36.699,37.518-65.419,131.13-65.419,131.13L128.932,243.816z"/>
	<path fill="#CCCCCC" d="M220.641,375.701c4.255-41.031,5.48-94.766-12.05-121.762c-26.138-40.256-64.745-48.139-105-22
		c-27.699,17.987-53.823,64.862-70.675,100.504L220.641,375.701z"/>
	
		<rect x="6.331" y="360.704" transform="matrix(-0.9745 -0.2245 0.2245 -0.9745 150.0573 782.9812)" fill="#CCCCCC" width="226.42" height="44.511"/>
</g>
<path opacity="0.7" fill="#FFFFFF" d="M58.833,333.695c0,0,7.667,1.667,7.667,1.667s12.562-30.219,22.667-50.667
	c14.166-28.667,45.667-51.001,45.667-51.001S108.5,238.86,88,270.193C72.554,293.803,58.833,333.695,58.833,333.695z"/>
</svg>
