<?xml version="1.0" encoding="utf-8"?>
<!-- Generator: Adobe Illustrator 16.0.4, SVG Export Plug-In . SVG Version: 6.00 Build 0)  -->
<!DOCTYPE svg PUBLIC "-//W3C//DTD SVG 1.1//EN" "http://www.w3.org/Graphics/SVG/1.1/DTD/svg11.dtd">
<svg version="1.1" id="Layer_1" xmlns="http://www.w3.org/2000/svg" xmlns:xlink="http://www.w3.org/1999/xlink" x="0px" y="0px"
	 width="377.75px" height="167.875px" viewBox="24.75 -5.125 377.75 167.875" enable-background="new 24.75 -5.125 377.75 167.875"
	 xml:space="preserve">
<g opacity="0.7">
	<circle opacity="0.8" fill="#7C7C7C" enable-background="new    " cx="143.829" cy="103.702" r="27.648"/>
	<circle opacity="0.8" fill="#7C7C7C" enable-background="new    " cx="48.003" cy="144.02" r="15.343"/>
	<circle opacity="0.8" fill="#7C7C7C" enable-background="new    " cx="66.515" cy="124.594" r="19.343"/>
	<circle opacity="0.8" fill="#7C7C7C" enable-background="new    " cx="121.515" cy="115.094" r="19.343"/>
	<circle opacity="0.8" fill="#7C7C7C" enable-background="new    " cx="89.515" cy="108.594" r="19.343"/>
	<circle opacity="0.8" fill="#7C7C7C" enable-background="new    " cx="133.043" cy="144.199" r="15.343"/>
	<circle opacity="0.8" fill="#7C7C7C" enable-background="new    " cx="140.623" cy="131.52" r="15.343"/>
	<circle opacity="0.8" fill="#7C7C7C" enable-background="new    " cx="185.635" cy="108.094" r="19.343"/>
	<circle opacity="0.8" fill="#7C7C7C" enable-background="new    " cx="127.858" cy="60.482" r="22.432"/>
	<circle opacity="0.8" fill="#7C7C7C" enable-background="new    " cx="160.429" cy="76.841" r="32.343"/>
	<circle opacity="0.8" fill="#7C7C7C" enable-background="new    " cx="190.587" cy="61.761" r="27.649"/>
	<circle opacity="0.8" fill="#7C7C7C" enable-background="new    " cx="107.271" cy="86.962" r="32.343"/>
	<circle opacity="0.8" fill="#7C7C7C" enable-background="new    " cx="340.271" cy="81.261" r="32.342"/>
	<circle opacity="0.8" fill="#7C7C7C" enable-background="new    " cx="360.271" cy="46.262" r="32.343"/>
	<circle opacity="0.8" fill="#7C7C7C" enable-background="new    " cx="193.226" cy="82.145" r="22.432"/>
	<circle opacity="0.8" fill="#7C7C7C" enable-background="new    " cx="232.352" cy="95.936" r="32.342"/>
	<circle opacity="0.8" fill="#7C7C7C" enable-background="new    " cx="260.001" cy="78.075" r="27.647"/>
	<circle opacity="0.8" fill="#7C7C7C" enable-background="new    " cx="313.51" cy="56.6" r="22.432"/>
	<circle opacity="0.8" fill="#7C7C7C" enable-background="new    " cx="261.303" cy="39.876" r="32.342"/>
	<circle opacity="0.8" fill="#7C7C7C" enable-background="new    " cx="224.803" cy="46.376" r="32.342"/>
	<circle opacity="0.8" fill="#7C7C7C" enable-background="new    " cx="191.803" cy="30.876" r="32.342"/>
	<circle opacity="0.8" fill="#7C7C7C" enable-background="new    " cx="310.51" cy="26.862" r="27.647"/>
	<circle opacity="0.8" fill="#7C7C7C" enable-background="new    " cx="281.367" cy="83.513" r="32.342"/>
	<path opacity="0.5" fill="#7C7C7C" enable-background="new    " d="M392.555,46.262c0-17.862-14.48-32.343-32.343-32.343
		c-8.696,0-16.584,3.438-22.396,9.021C335.91,9.529,324.388-0.785,310.45-0.785c-11.939,0-22.11,7.568-25.979,18.169
		c-5.879-6.07-14.11-9.85-23.229-9.85c-8.944,0-17.041,3.632-22.896,9.5c-4.137-1.921-8.743-3-13.604-3
		c-1.751,0-3.469,0.144-5.145,0.412c-5.629-9.522-15.993-15.912-27.856-15.912c-17.861,0-32.342,14.48-32.342,32.342
		c0,4.896,1.094,9.535,3.042,13.695c-0.687-0.043-1.376-0.073-2.074-0.073c-5.062,0-9.85,1.165-14.116,3.237
		c-4.048-5.851-10.803-9.686-18.456-9.686c-10.37,0-19.092,7.038-21.661,16.597C88.772,55.214,74.868,69.46,74.868,86.962
		c0,2.724,0.341,5.367,0.975,7.895c-2.875,2.85-4.841,6.601-5.483,10.789c-1.261-0.259-2.567-0.395-3.905-0.395
		c-10.683,0-19.343,8.66-19.343,19.343c0,1.409,0.159,2.779,0.445,4.103c-8.294,0.206-14.958,6.979-14.958,15.323
		c0,8.475,6.869,15.344,15.343,15.344c8.474,0,15.343-6.869,15.343-15.344c0-0.124-0.016-0.243-0.019-0.366
		c1.04,0.173,2.1,0.284,3.188,0.284c9.677,0,17.671-7.115,19.095-16.395c1.261,0.259,2.567,0.395,3.905,0.395
		c5.483,0,10.422-2.291,13.942-5.956c2.744,7.189,9.637,12.317,17.762,12.441c-2.197,2.654-3.519,6.061-3.519,9.775
		c0,8.475,6.869,15.344,15.343,15.344c8.286,0,15.019-6.572,15.314-14.787c4.546-2.663,7.608-7.586,7.608-13.235
		c0-0.972-0.101-1.919-0.273-2.841c5.387-2.563,9.811-6.818,12.591-12.078c3.149,6.412,9.726,10.837,17.352,10.837
		c9.216,0,16.913-6.45,18.857-15.078c5.628,9.525,15.995,15.918,27.86,15.918c13.105,0,24.382-7.8,29.463-19.006
		c5.431,4.128,12.204,6.583,19.553,6.583c13.551,0,25.149-8.338,29.961-20.159c5.305,10.614,16.27,17.907,28.943,17.907
		c17.862,0,32.343-14.48,32.343-32.34c0-1.684-0.13-3.338-0.378-4.953C384.114,71.551,392.555,59.896,392.555,46.262z
		 M292.571,47.941c0.045,0.039,0.09,0.079,0.135,0.118c-0.616,1.496-1.073,3.073-1.355,4.711c-0.129-0.042-0.256-0.09-0.386-0.131
		C291.614,51.128,292.155,49.56,292.571,47.941z"/>
</g>
</svg>
