<?xml version="1.0" encoding="utf-8"?>
<!-- Generator: Adobe Illustrator 16.0.4, SVG Export Plug-In . SVG Version: 6.00 Build 0)  -->
<!DOCTYPE svg PUBLIC "-//W3C//DTD SVG 1.1//EN" "http://www.w3.org/Graphics/SVG/1.1/DTD/svg11.dtd">
<svg version="1.1" id="Layer_1" xmlns="http://www.w3.org/2000/svg" xmlns:xlink="http://www.w3.org/1999/xlink" x="0px" y="0px"
	 width="493.824px" height="309.572px" viewBox="0 0 493.824 309.572" enable-background="new 0 0 493.824 309.572"
	 xml:space="preserve">
<g>
	<circle opacity="0.5" fill="#FFFFFF" cx="139.782" cy="186.579" r="47.998"/>
	<circle opacity="0.5" fill="#FFFFFF" cx="302.354" cy="84.584" r="47.998"/>
	<circle opacity="0.5" fill="#FFFFFF" cx="331.773" cy="203.079" r="47.997"/>
	<circle opacity="0.5" fill="#FFFFFF" cx="392.37" cy="54.407" r="33.918"/>
	<circle opacity="0.5" fill="#FFFFFF" cx="309.854" cy="136.501" r="33.918"/>
	<circle opacity="0.5" fill="#FFFFFF" cx="159.182" cy="230.657" r="33.919"/>
	<circle opacity="0.5" fill="#FFFFFF" cx="155.682" cy="130.362" r="33.919"/>
	<circle opacity="0.5" fill="#FFFFFF" cx="384.271" cy="149.081" r="47.998"/>
	<circle opacity="0.5" fill="#FFFFFF" cx="252.277" cy="183.58" r="47.997"/>
	<circle opacity="0.5" fill="#FFFFFF" cx="76.786" cy="143.082" r="47.998"/>
	<circle opacity="0.5" fill="#FFFFFF" cx="227.679" cy="105.762" r="33.918"/>
	<circle opacity="0.5" fill="#FFFFFF" cx="184.2" cy="199.159" r="33.918"/>
	<circle opacity="0.5" fill="#FFFFFF" cx="285.376" cy="218.998" r="33.918"/>
	<circle opacity="0.5" fill="#FFFFFF" cx="420.368" cy="241.496" r="33.918"/>
	<path opacity="0.5" fill="#FFFFFF" d="M109.464,76.305c0-18.734,15.186-33.92,33.918-33.92s33.918,15.186,33.918,33.92
		c0,18.73-15.186,33.918-33.918,33.918S109.464,95.036,109.464,76.305z"/>
</g>
</svg>
