<?xml version="1.0" encoding="utf-8"?>
<!-- Generator: Adobe Illustrator 16.0.4, SVG Export Plug-In . SVG Version: 6.00 Build 0)  -->
<!DOCTYPE svg PUBLIC "-//W3C//DTD SVG 1.1//EN" "http://www.w3.org/Graphics/SVG/1.1/DTD/svg11.dtd">
<svg version="1.1" id="Layer_1" xmlns="http://www.w3.org/2000/svg" xmlns:xlink="http://www.w3.org/1999/xlink" x="0px" y="0px"
	 width="486px" height="311px" viewBox="0 0 486 311" enable-background="new 0 0 486 311" xml:space="preserve">
<g>
	<polygon fill="#FFFFFF" points="186.167,54.667 336.167,16.667 418.167,246.667 226.167,294 	"/>
	<path fill="#FFFFFF" d="M387.38,220.713c-11.08,0-27.633-5.185-43.568-29.885c-9.637-14.938-18.025-35.587-23.619-58.143
		c-5.527-22.287,0.978-48.836,16.977-69.288c14.259-18.228,34.097-28.681,54.428-28.681c10.157,0,20.313,2.519,30.188,7.488
		c26.179,12.626,38.627,38.737,35.053,73.539c-4.552,44.32-35.591,97.699-60.385,103.847
		C393.45,220.336,390.397,220.713,387.38,220.713z M391.597,57.269c-18.272,0-30.815,12.546-36.666,20.024
		c-11.643,14.883-16.687,34.495-12.85,49.964c10.189,41.085,29.24,70.904,45.299,70.904c1.19,0,2.417-0.154,3.646-0.459
		c10.044-2.491,39.067-42.283,43.379-84.263c2.607-25.393-4.957-42.536-22.483-50.955l-0.2-0.099
		C404.995,58.99,398.224,57.269,391.597,57.269z"/>
</g>
<rect x="54.52" y="180.45" transform="matrix(-0.8827 -0.4699 0.4699 -0.8827 209.9804 446.0646)" fill="#FFFFFF" width="212.275" height="32.755"/>
<rect x="111.782" y="146.92" transform="matrix(-0.9713 0.2379 -0.2379 -0.9713 373.8441 256.1762)" fill="#FFFFFF" width="119.365" height="7.452"/>
<polygon fill="#FFFFFF" points="19.508,171.027 62.521,94.858 77.167,135 61.167,162 "/>
</svg>
