<?xml version="1.0" encoding="utf-8"?>
<!-- Generator: Adobe Illustrator 16.0.4, SVG Export Plug-In . SVG Version: 6.00 Build 0)  -->
<!DOCTYPE svg PUBLIC "-//W3C//DTD SVG 1.1//EN" "http://www.w3.org/Graphics/SVG/1.1/DTD/svg11.dtd">
<svg version="1.1" id="Layer_1" xmlns="http://www.w3.org/2000/svg" xmlns:xlink="http://www.w3.org/1999/xlink" x="0px" y="0px"
	 width="91px" height="134px" viewBox="0 0 91 134" enable-background="new 0 0 91 134" xml:space="preserve">
<path fill="#3F90A5" d="M85.239,85.759c0,23.849-17.748,43.181-39.641,43.181S5.957,109.607,5.957,85.759
	c0-23.848,36.81-82.819,36.81-82.819S85.239,61.911,85.239,85.759z"/>
<path opacity="0.7" fill="#FFFFFF" d="M28.94,45.31c0,0-13.686,27.472-12.125,44.25c1.198,12.881,5.83,18.917,10.772,23.11
	c5.417,4.597,13.038,6.714,19.104,6.265c6.066-0.449,11.375-2.875,11.375-2.875s-12.802,1.401-23.625-5.5
	c-10.334-6.59-12.184-20.329-12-29.5C22.761,65.072,28.94,45.31,28.94,45.31z"/>
</svg>
